<?xml version="1.0" encoding="utf-8"?>
<!-- Generator: Adobe Illustrator 25.1.0, SVG Export Plug-In . SVG Version: 6.00 Build 0)  -->
<svg version="1.1" id="Logo" xmlns="http://www.w3.org/2000/svg" xmlns:xlink="http://www.w3.org/1999/xlink" x="0px" y="0px"
	 viewBox="0 0 1344 600" style="enable-background:new 0 0 1344 600;" xml:space="preserve">
<style type="text/css">
	.st0{fill-rule:evenodd;clip-rule:evenodd;fill:url(#SVGID_1_);}
	.st1{fill-rule:evenodd;clip-rule:evenodd;fill:url(#SVGID_2_);}
	.st2{fill-rule:evenodd;clip-rule:evenodd;fill:#FFFFFF;}
	.st3{fill-rule:evenodd;clip-rule:evenodd;fill:#FCEAB6;}
</style>
<linearGradient id="SVGID_1_" gradientUnits="userSpaceOnUse" x1="164.8381" y1="358.4879" x2="164.8381" y2="68.265">
	<stop  offset="0" style="stop-color:#155FA3"/>
	<stop  offset="0.2" style="stop-color:#155FA3"/>
	<stop  offset="0.79" style="stop-color:#43B5EA"/>
	<stop  offset="1" style="stop-color:#43B5EA"/>
</linearGradient>
<path class="st0" d="M84.7,67.5h160.4c22.5,0,41,18.5,41,41.1V254c0,18.6-12.6,34.5-29.7,39.5l26,64.2L173.2,295H84.7
	c-22.5,0-41.1-18.5-41.1-41V108.6C43.6,86,62.2,67.5,84.7,67.5z"/>
<linearGradient id="SVGID_2_" gradientUnits="userSpaceOnUse" x1="430.8993" y1="536.9176" x2="430.8993" y2="29.3527">
	<stop  offset="0" style="stop-color:#FD4D07"/>
	<stop  offset="1" style="stop-color:#FD8F2F"/>
</linearGradient>
<path class="st1" d="M541,64.4L541,64.4c1.9,0,3.7,0,5.5,0c36.6,0,65.9-4.8,92.4-24.5c13.2-9.8,32.3,3.4,20.2,25.3
	C651,79.5,640.1,91,627,99.9c7.4,0.9,14.6,2.8,21.6,5.8c24.6,10.4,41.8,31.4,48.4,55.5c-21.8,12.1-48.8,14.5-73.5,4.1
	c-3.3-1.4-6.3-2.9-9.3-4.7c0,91.1,0,182.2,0,273.2c0,26.6-10.7,32.3-31.9,32.3c-20.8,0-41.5,0-62.2,0c0,20,0,39.8,0,59.8
	c0,6.4-5.3,11.7-11.7,11.7c-7.7,0-15.5,0-23.4,0c-3.2,0-6.1-1.3-8.2-3.5c-2.1-2.1-3.4-5-3.4-8.2c0-4.2,0-8.4,0-12.6
	c0-14.5-13-14.5-13,0c0,4.2,0,8.4,0,12.6c0,6.4-5.3,11.7-11.7,11.7c-7.7,0-15.5,0-23.2,0c-6.4,0-11.7-5.3-11.7-11.7
	c0-49.6-88.9-50.2-88.9,0c0,6.4-5.3,11.7-11.7,11.7c-7.7,0-15.5,0-23.2,0c-3.3,0-6.2-1.3-8.3-3.5c-2.1-2.1-3.4-5-3.4-8.2
	c0-4.2,0-8.4,0-12.6c0-13.4-13-13.4-13,0c0,4.2,0,8.4,0,12.6c0,6.4-5.3,11.7-11.7,11.7c-7.7,0-15.5,0-23.2,0
	c-6.4,0-11.7-5.3-11.7-11.7c0-51,0-92.1,0-143.2c-21.6,8.8-26,22.5-26.4,40.6c19.3,17.1,18.3,49.8-6.1,73.2
	c-27.1-23.7-26.6-58.9-9.2-72.8c0.8-34.9,18.7-60.6,40.6-84.2l56.5,32.5c12.7,7.2,29-6.9,23.5-20.6l-20.3-50.1
	c8.5-5.8,15.4-13.8,19.7-23.2c1.5-3,2.7-6.1,3.4-9.1c1.4-4.8,2.1-9.8,2.1-15.1l0,0V108.6l0,0c0-15.9-6.5-30.2-16.9-40.8
	c-8.5-8.5-19.9-14.5-32.3-16.2c0.2-13.3,13.9-19.4,24.1-11.8c26.7,19.9,59.9,24.5,92.3,24.5c1.9,0,3.7,0,5.5,0l0,0
	C430.5,64.4,485.8,64.4,541,64.4z"/>
<path class="st2" d="M520.7,120.7l61.8,66.8v246.8h-61.8v-28.4c14.2,0,25.8-14.9,25.8-33.2c0-18.2-11.6-33.2-25.8-33.2v-121
	c0.8-2.8,1.3-5.7,1.3-8.8c0-3.2-0.5-6.1-1.3-8.9V120.7z M396,94.3h100.3l24.4,26.4v80.2c-2.7-8.8-9.5-15.1-17.3-15.1
	c-10.3,0-18.7,10.7-18.7,23.9c0,13.1,8.4,23.9,18.7,23.9c7.8,0,14.6-6.3,17.3-15.2v121c-14.1,0-25.8,14.9-25.8,33.2
	c0,18.2,11.7,33.2,25.8,33.2v28.4H396v-28.4c14.1,0,25.8-14.9,25.8-33.2c0-18.2-11.7-33.2-25.8-33.2v-121
	c2.7,8.9,9.5,15.2,17.3,15.2c10.3,0,18.7-10.9,18.7-23.9c0-13.2-8.4-23.9-18.7-23.9c-7.8,0-14.6,6.3-17.3,15.1V94.3z M334.2,94.3
	H396v106.6c-0.8,2.8-1.3,5.7-1.3,8.9c0,3,0.5,6,1.3,8.8v121c-14.2,0-25.8,14.9-25.8,33.2c0,18.2,11.6,33.2,25.8,33.2v28.4h-61.8
	V94.3z"/>
<path class="st3" d="M582.5,323.7v110.5h-61.8v-28.4c14.2,0,25.8-14.9,25.8-33.2c0-18.2-11.6-33.2-25.8-33.2V312
	C542.8,314.5,563.6,318.5,582.5,323.7z M520.7,434.2H396v-28.4c14.1,0,25.8-14.9,25.8-33.2c0-18.2-11.7-33.2-25.8-33.2V312
	c19.9-2.5,40.8-3.7,62.4-3.7c21.6,0,42.5,1.3,62.4,3.7v27.6c-14.1,0-25.8,14.9-25.8,33.2c0,18.2,11.7,33.2,25.8,33.2V434.2z
	 M396,434.2h-61.8V323.7c18.9-5.3,39.7-9.2,61.8-11.8v27.6c-14.2,0-25.8,14.9-25.8,33.2c0,18.2,11.6,33.2,25.8,33.2V434.2z"/>
<path class="st3" d="M373.4,264.1h169.8v14.7H373.4V264.1L373.4,264.1z M373.4,140.6h115.7v14.7H373.4V140.6L373.4,140.6z
	 M373.4,202.4h22.1c-0.6,2.2-0.8,4.8-0.8,7.4s0.2,5,0.8,7.2h-22.1V202.4L373.4,202.4z M431,202.4h54.7c-0.6,2.2-0.9,4.8-0.9,7.4
	s0.4,5,0.9,7.2H431c0.6-2.2,0.9-4.7,0.9-7.2S431.6,204.6,431,202.4L431,202.4z M521.2,202.4h22.1V217h-22.1c0.6-2.2,0.8-4.7,0.8-7.2
	S521.7,204.6,521.2,202.4z"/>
<path class="st2" d="M204.8,136.3h1.5l-1.5,6.9V136.3L204.8,136.3z M204.8,157.8v11.8h10.2l-4.6,21h-5.6v11.8h3.2l-3.2,14.6v7.5
	h11.3l4.8-22.1h18.3v-11.8h-15.9l4.6-21H246v-11.8h-15.6l4.6-21.5h-13l-4.6,21.5H204.8z M160.8,190.6h20.9l4.6-21h-18.3v-11.8h20.8
	l4.6-21.5h11.6v6.9l-3.2,14.6h3.2v11.8h-5.6l-4.6,21h10.2v11.8h-12.6l-4.7,22.1h-13l4.7-22.1h-18.5V190.6L160.8,190.6z M204.8,224.5
	V217l-1.6,7.5H204.8L204.8,224.5z M132.3,137.4c8.4,0,15.7,1.8,21.5,4.8l-7.6,10.5c-3.9-2.2-8.5-3.5-14.3-3.5
	c-17.8,0-28.7,14-28.7,31.3c0,17.3,10.2,31.3,28.7,31.3c6.1,0,11-1.4,15-3.9l7.6,10.6c-6,3.2-13.3,5-22.2,5
	c-26.9,0-43.2-19.4-43.2-43.1S105.6,137.4,132.3,137.4z"/>
</svg>
