<?xml version="1.0" encoding="utf-8"?>
<!-- Generator: Adobe Illustrator 25.1.0, SVG Export Plug-In . SVG Version: 6.00 Build 0)  -->
<svg version="1.1" id="Logo" xmlns="http://www.w3.org/2000/svg" xmlns:xlink="http://www.w3.org/1999/xlink" x="0px" y="0px"
	 viewBox="0 0 1344 600" style="enable-background:new 0 0 1344 600;" xml:space="preserve">
<style type="text/css">
	.st0{fill:none;stroke:#FFFFFF;stroke-width:13;stroke-miterlimit:10;}
	.st1{fill:#FFFFFF;}
</style>
<circle class="st0" cx="448" cy="175" r="139.1"/>
<g>
	<g>
		<g>
			<path class="st1" d="M442.8,379.4V515H433V379c-4.1-0.3-8.3-0.7-12.4-1.2V514v7.7v0.2c0,0,8.4,9.3,26.9,9.3s27.8-9.5,27.8-9.5
				V514V377.5c-9.3,1.3-18.7,2-28.1,2C445.8,379.5,444.3,379.4,442.8,379.4z"/>
			<path class="st1" d="M420.6,337.3v33.8c4.1,0.5,8.2,1,12.4,1.2v-19.2h9.8v19.6c10.9,0.2,21.8-0.4,32.5-1.9V337
				c-9.1,1.6-18.5,2.4-28.1,2.4C438.2,339.5,429.3,338.7,420.6,337.3z"/>
		</g>
	</g>
</g>
<g>
	<g>
		<g>
			<path class="st1" d="M276,419.6L160.4,118.9H79.7v410.3h57V199.7L249,495.9h54.1l67-177c-16.2-7.6-31-17.7-43.9-29.8
				C304.1,346.5,276,419.6,276,419.6z"/>
		</g>
	</g>
</g>
<g>
	<path class="st1" d="M351.4,203.8c0-4,2.7-6.8,6.5-6.8s6.4,2.8,6.4,6.8c0,3.9-2.5,6.8-6.5,6.8C354,210.6,351.4,207.7,351.4,203.8z"
		/>
	<path class="st1" d="M376.4,209.5v-72.8h10.3l23.3,36.8c5.4,8.5,9.6,16.2,13.1,23.7l0.2-0.1c-0.9-9.7-1.1-18.6-1.1-29.9v-30.5h8.9
		v72.8h-9.5l-23.1-36.9c-5.1-8.1-9.9-16.4-13.6-24.3l-0.3,0.1c0.5,9.2,0.8,17.9,0.8,30v31.1H376.4z"/>
	<path class="st1" d="M485.1,175.3h-28.3v26.2h31.5v7.9h-40.9v-72.8h39.3v7.9h-29.9v23h28.3V175.3z"/>
	<path class="st1" d="M516.1,144.7H494v-8h53.9v8h-22.2v64.8h-9.5V144.7z"/>
</g>
</svg>
